<svg xmlns="http://www.w3.org/2000/svg" width="14" height="14" viewBox="0 0 14 14"><path fill="#6A727C" d="M12.994 1.275h-11.988c-.368 0-.666.298-.666.667v8.781c0 .368.298.666.666.666h3.875l-.16.901h-1.026c-.12 0-.217.097-.217.217s.097.217.217.217h6.61c.119 0 .218-.097.218-.217s-.099-.217-.218-.217h-1.026l-.161-.9h3.876c.368 0 .666-.298.666-.666v-8.782c0-.368-.298-.667-.666-.667zm-6.516 9.122c0-.288.234-.523.522-.523.288 0 .523.235.523.523 0 .289-.235.521-.523.521-.289.001-.522-.231-.522-.521zm6.25-1.049h-11.456v-7.03h11.456v7.03z"/></svg>