<svg xmlns="http://www.w3.org/2000/svg" width="600" height="320" viewBox="0 0 600 320"><path stroke="#5BD426" stroke-width="2" stroke-miterlimit="10" stroke-dasharray="6.0074,6.0074" d="M580.118 293.492c0 6.627-5.24 12-11.703 12h-536.831c-6.462 0-11.702-5.373-11.702-12v-266.984c0-6.628 5.24-12 11.702-12h536.831c6.463 0 11.703 5.372 11.703 12v266.984z" fill="none"/><path fill="#DCF4D1" d="M356.002 178.807c0 5.5-4.5 10-10 10h-72.867c-5.5 0-10-4.5-10-10v-92.318c0-5.5 4.5-10 10-10h72.867c5.5 0 10 4.5 10 10v92.318z"/><path stroke="#fff" stroke-width="2" stroke-miterlimit="10" d="M356.002 178.807c0 5.5-4.5 10-10 10h-72.867c-5.5 0-10-4.5-10-10v-92.318c0-5.5 4.5-10 10-10h72.867c5.5 0 10 4.5 10 10v92.318z" fill="none"/><path fill="#ABE891" d="M346.59 170.335c0 5.5-4.5 10-10 10h-72.867c-5.5 0-10-4.5-10-10v-92.318c0-5.5 4.5-10 10-10h72.867c5.5 0 10 4.5 10 10v92.318z"/><path stroke="#fff" stroke-width="2" stroke-miterlimit="10" d="M346.59 170.335c0 5.5-4.5 10-10 10h-72.867c-5.5 0-10-4.5-10-10v-92.318c0-5.5 4.5-10 10-10h72.867c5.5 0 10 4.5 10 10v92.318z" fill="none"/><path fill="#5BD426" d="M336.863 161.236c0 5.5-4.5 10-10 10h-72.867c-5.5 0-10-4.5-10-10v-92.317c0-5.5 4.5-10 10-10h72.867c5.5 0 10 4.5 10 10v92.317z"/><path stroke="#fff" stroke-width="2" stroke-miterlimit="10" d="M336.863 161.236c0 5.5-4.5 10-10 10h-72.867c-5.5 0-10-4.5-10-10v-92.317c0-5.5 4.5-10 10-10h72.867c5.5 0 10 4.5 10 10v92.317z" fill="none"/><g enable-background="new" fill="#5BD426"><path d="M235.006 221.855h4.424c5.356 0 6.664 3.994 6.664 6.341 0 3.243-2.418 6.342-6.951 6.342h-4.138v-12.683zm1.72 11.071h2.167c2.902 0 5.374-1.595 5.374-4.729 0-1.612-.842-4.729-4.962-4.729h-2.58v9.458zM248.152 226.047h1.612v1.308h.036c.412-.896 1.487-1.522 2.544-1.522.25 0 .501.036.716.107l-.072 1.737c-.269-.071-.537-.125-.788-.125-1.576 0-2.436.859-2.436 2.723v4.264h-1.612v-8.492zM254.814 227.086c.896-.842 2.186-1.254 3.368-1.254 2.508 0 3.547 1.361 3.547 2.83v4.335c0 .592.018 1.093.072 1.541h-1.433c-.036-.43-.054-.859-.054-1.29h-.036c-.717 1.093-1.684 1.505-2.974 1.505-1.577 0-2.938-.896-2.938-2.544 0-2.186 2.096-2.938 4.675-2.938h1.183v-.358c0-.878-.645-1.791-2.024-1.791-1.236 0-1.827.52-2.418.967l-.968-1.003zm4.551 3.368c-1.523 0-3.386.269-3.386 1.63 0 .967.716 1.379 1.827 1.379 1.792 0 2.418-1.325 2.418-2.472v-.537h-.859zM272.583 234.467c0 2.562-1.863 4.37-4.64 4.37-1.612 0-2.956-.411-4.156-1.522l1.093-1.361c.842.896 1.791 1.38 3.027 1.38 2.4 0 3.063-1.505 3.063-2.938v-1.254h-.054c-.609 1.021-1.773 1.505-2.938 1.505-2.49 0-4.335-1.881-4.317-4.353 0-2.509 1.684-4.461 4.317-4.461 1.146 0 2.329.52 2.956 1.433h.036v-1.218h1.612v8.419zm-7.202-4.174c0 1.72 1.075 2.848 2.794 2.848s2.794-1.128 2.794-2.848-1.075-2.956-2.794-2.956-2.794 1.236-2.794 2.956zM280.927 221.819c.645 0 1.182.537 1.182 1.183 0 .645-.538 1.182-1.182 1.182-.645 0-1.183-.537-1.183-1.182.001-.646.538-1.183 1.183-1.183zm-.806 4.228h1.612v8.491h-1.612v-8.491zM284.294 226.047h1.612v1.308h.036c.412-.896 1.487-1.522 2.794-1.522 1.648 0 3.082.985 3.082 3.242v5.464h-1.612v-5.016c0-1.595-.914-2.186-1.935-2.186-1.343 0-2.364.859-2.364 2.83v4.371h-1.612v-8.491zM299.267 227.086c.896-.842 2.186-1.254 3.368-1.254 2.508 0 3.547 1.361 3.547 2.83v4.335c0 .592.018 1.093.071 1.541h-1.433c-.036-.43-.055-.859-.055-1.29h-.035c-.717 1.093-1.684 1.505-2.974 1.505-1.577 0-2.938-.896-2.938-2.544 0-2.186 2.095-2.938 4.675-2.938h1.183v-.358c0-.878-.646-1.791-2.024-1.791-1.236 0-1.827.52-2.418.967l-.967-1.003zm4.549 3.368c-1.522 0-3.385.269-3.385 1.63 0 .967.716 1.379 1.827 1.379 1.792 0 2.419-1.325 2.419-2.472v-.537h-.861zM322.014 234.538h-1.612v-1.218h-.036c-.627.913-1.809 1.433-2.955 1.433-2.633 0-4.317-1.952-4.317-4.46 0-2.544 1.702-4.461 4.317-4.461 1.218 0 2.383.556 2.955 1.433h.036v-6.27h1.612v13.543zm-1.613-4.245c0-1.72-1.075-2.956-2.794-2.956-1.721 0-2.795 1.236-2.795 2.956s1.074 2.955 2.795 2.955c1.719 0 2.794-1.235 2.794-2.955zM325.666 230.884c0 1.486 1.379 2.472 2.867 2.472.984 0 1.701-.501 2.328-1.271l1.219.932c-.896 1.164-2.133 1.737-3.763 1.737-2.687 0-4.37-1.935-4.37-4.46 0-2.544 1.844-4.461 4.389-4.461 2.991 0 4.138 2.293 4.138 4.479v.573h-6.808zm5.088-1.29c-.036-1.415-.824-2.472-2.454-2.472-1.595 0-2.634 1.343-2.634 2.472h5.088zM338.92 228.179c-.376-.466-.932-.842-1.738-.842-.752 0-1.414.34-1.414.949 0 1.021 1.451 1.164 2.167 1.325 1.397.341 2.472.878 2.472 2.473 0 1.917-1.755 2.669-3.439 2.669-1.396 0-2.436-.358-3.277-1.505l1.218-1.003c.52.52 1.128 1.003 2.06 1.003.824 0 1.721-.34 1.721-1.074 0-.968-1.344-1.146-2.043-1.308-1.379-.341-2.598-.789-2.598-2.419 0-1.773 1.631-2.615 3.225-2.615 1.129 0 2.293.394 2.902 1.397l-1.256.95zM343.289 221.819c.645 0 1.183.537 1.183 1.183 0 .645-.538 1.182-1.183 1.182s-1.182-.537-1.182-1.182c0-.646.538-1.183 1.182-1.183zm-.806 4.228h1.612v8.491h-1.612v-8.491zM355.164 234.467c0 2.562-1.862 4.37-4.639 4.37-1.613 0-2.956-.411-4.156-1.522l1.093-1.361c.842.896 1.791 1.38 3.027 1.38 2.4 0 3.063-1.505 3.063-2.938v-1.254h-.055c-.608 1.021-1.773 1.505-2.938 1.505-2.49 0-4.335-1.881-4.316-4.353 0-2.509 1.684-4.461 4.316-4.461 1.146 0 2.329.52 2.956 1.433h.036v-1.218h1.611v8.419zm-7.201-4.174c0 1.72 1.075 2.848 2.795 2.848s2.795-1.128 2.795-2.848-1.075-2.956-2.795-2.956-2.795 1.236-2.795 2.956zM357.599 226.047h1.612v1.308h.035c.412-.896 1.487-1.522 2.795-1.522 1.648 0 3.082.985 3.082 3.242v5.464h-1.613v-5.016c0-1.595-.913-2.186-1.935-2.186-1.343 0-2.364.859-2.364 2.83v4.371h-1.612v-8.491z"/></g><g enable-background="new" fill="#5BD426"><path d="M224.44 243.598c-1.541 2.419-2.293 4.39-2.293 7.273 0 2.615.77 5.142 2.293 7.237l-1.075.717c-1.648-2.239-2.615-5.017-2.615-7.954 0-2.741.914-5.607 2.615-7.954l1.075.681zM226.499 243.348h1.72v5.267h6.574v-5.267h1.72v12.683h-1.72v-5.804h-6.574v5.804h-1.72v-12.683zM242.421 244.96h-4.084v-1.612h9.888v1.612h-4.084v11.07h-1.72v-11.07zM249.925 243.348h2.562l4.031 9.602h.072l3.995-9.602h2.562v12.683h-1.72v-10.426h-.036l-4.282 10.426h-1.146l-4.281-10.426h-.036v10.426h-1.72v-12.683zM266.277 243.348h1.72v11.07h5.822v1.612h-7.542v-12.682zM284.241 247.324c2.526 0 4.514 1.988 4.514 4.461 0 2.472-1.988 4.46-4.514 4.46s-4.514-1.988-4.514-4.46c0-2.473 1.988-4.461 4.514-4.461zm0 7.416c1.72 0 2.794-1.235 2.794-2.955s-1.075-2.956-2.794-2.956-2.794 1.236-2.794 2.956 1.074 2.955 2.794 2.955zM290.777 247.539h1.612v1.308h.036c.412-.896 1.487-1.522 2.794-1.522 1.648 0 3.081.985 3.081 3.242v5.464h-1.612v-5.016c0-1.595-.914-2.186-1.935-2.186-1.343 0-2.364.859-2.364 2.83v4.371h-1.612v-8.491zM300.861 242.487h1.611v13.543h-1.611v-13.543zM304.012 247.539h1.863l2.525 6.628h.036l2.4-6.628h1.737l-4.03 10.318c-.573 1.469-1.128 2.472-2.901 2.472-.484 0-.986-.054-1.434-.232l.197-1.469c.305.125.645.197.967.197 1.021 0 1.326-.556 1.648-1.397l.52-1.344-3.528-8.545zM318.967 247.539h1.613v1.218h.035c.627-.913 1.809-1.433 2.955-1.433 2.634 0 4.318 1.952 4.318 4.461 0 2.543-1.702 4.46-4.318 4.46-1.217 0-2.382-.556-2.955-1.433h-.035v6.27h-1.613v-13.543zm1.613 4.246c0 1.72 1.074 2.955 2.794 2.955s2.794-1.235 2.794-2.955-1.074-2.956-2.794-2.956-2.794 1.236-2.794 2.956zM330.035 242.487h1.612v13.543h-1.612v-13.543zM335.427 252.376c0 1.486 1.379 2.472 2.866 2.472.984 0 1.701-.501 2.328-1.271l1.219.932c-.896 1.164-2.132 1.737-3.762 1.737-2.688 0-4.371-1.935-4.371-4.46 0-2.544 1.845-4.461 4.389-4.461 2.992 0 4.139 2.293 4.139 4.479v.573h-6.808zm5.087-1.29c-.035-1.415-.824-2.472-2.453-2.472-1.596 0-2.634 1.343-2.634 2.472h5.087zM344.202 248.578c.896-.842 2.186-1.254 3.368-1.254 2.508 0 3.547 1.361 3.547 2.83v4.335c0 .592.018 1.093.071 1.541h-1.433c-.036-.43-.055-.859-.055-1.29h-.035c-.717 1.093-1.684 1.505-2.974 1.505-1.577 0-2.938-.896-2.938-2.544 0-2.186 2.096-2.938 4.676-2.938h1.183v-.358c0-.878-.646-1.791-2.024-1.791-1.236 0-1.827.52-2.418.967l-.968-1.003zm4.55 3.368c-1.522 0-3.385.269-3.385 1.63 0 .967.716 1.379 1.826 1.379 1.792 0 2.419-1.325 2.419-2.472v-.537h-.86zM357.976 249.671c-.376-.466-.932-.842-1.737-.842-.753 0-1.416.34-1.416.949 0 1.021 1.451 1.164 2.168 1.325 1.397.341 2.473.878 2.473 2.473 0 1.917-1.756 2.669-3.439 2.669-1.398 0-2.437-.358-3.279-1.505l1.219-1.003c.52.52 1.129 1.003 2.061 1.003.824 0 1.719-.34 1.719-1.074 0-.968-1.343-1.146-2.041-1.308-1.38-.341-2.598-.789-2.598-2.419 0-1.773 1.63-2.615 3.225-2.615 1.128 0 2.293.394 2.901 1.397l-1.256.95zM362.632 252.376c0 1.486 1.379 2.472 2.866 2.472.984 0 1.701-.501 2.328-1.271l1.219.932c-.896 1.164-2.132 1.737-3.762 1.737-2.688 0-4.371-1.935-4.371-4.46 0-2.544 1.845-4.461 4.389-4.461 2.992 0 4.139 2.293 4.139 4.479v.573h-6.808zm5.087-1.29c-.035-1.415-.824-2.472-2.453-2.472-1.596 0-2.634 1.343-2.634 2.472h5.087zM371.461 254.955c0-.645.537-1.182 1.182-1.182s1.183.537 1.183 1.182c0 .646-.538 1.183-1.183 1.183s-1.182-.537-1.182-1.183zM375.562 258.145c1.541-2.419 2.293-4.39 2.293-7.273 0-2.615-.771-5.142-2.293-7.237l1.075-.717c1.648 2.239 2.615 5.017 2.615 7.954 0 2.741-.914 5.607-2.615 7.954l-1.075-.681z"/></g><g fill="#fff"><path d="M277.625 113.873c0 7.151 5.821 13.002 13.002 13.002s13.003-5.851 13.003-13.002h-26.005zM280.876 106.618c0 1.346-1.092 2.438-2.438 2.438s-2.438-1.092-2.438-2.438c0-1.347 1.092-2.438 2.438-2.438s2.438 1.091 2.438 2.438M305.256 106.618c0 1.346-1.092 2.438-2.438 2.438-1.348 0-2.438-1.092-2.438-2.438 0-1.347 1.091-2.438 2.438-2.438 1.346 0 2.438 1.091 2.438 2.438"/></g></svg>